<?xml version="1.0" encoding="UTF-8" standalone="no"?>
<!-- Generator: Adobe Illustrator 12.0.0, SVG Export Plug-In . SVG Version: 6.00 Build 51448)  -->
<svg
   xmlns:dc="http://purl.org/dc/elements/1.1/"
   xmlns:cc="http://web.resource.org/cc/"
   xmlns:rdf="http://www.w3.org/1999/02/22-rdf-syntax-ns#"
   xmlns:svg="http://www.w3.org/2000/svg"
   xmlns="http://www.w3.org/2000/svg"
   xmlns:xlink="http://www.w3.org/1999/xlink"
   xmlns:sodipodi="http://sodipodi.sourceforge.net/DTD/sodipodi-0.dtd"
   xmlns:inkscape="http://www.inkscape.org/namespaces/inkscape"
   version="1.1"
   id="Layer_1"
   width="325.96"
   height="94.675"
   viewBox="0 0 325.96 94.675"
   overflow="visible"
   enable-background="new 0 0 325.96 94.675"
   xml:space="preserve"
   sodipodi:version="0.32"
   inkscape:version="0.44.1"
   sodipodi:docname="Dagbladet logo.svg"
   sodipodi:docbase="C:\Documents and Settings\Sigurd\Mine dokumenter\Mine bilder"><metadata
   id="metadata34"><rdf:RDF><cc:Work
       rdf:about=""><dc:format>image/svg+xml</dc:format><dc:type
         rdf:resource="http://purl.org/dc/dcmitype/StillImage" /></cc:Work></rdf:RDF></metadata><defs
   id="defs32" /><sodipodi:namedview
   inkscape:window-height="719"
   inkscape:window-width="1024"
   inkscape:pageshadow="2"
   inkscape:pageopacity="0.0"
   guidetolerance="10.0"
   gridtolerance="10.0"
   objecttolerance="10.0"
   borderopacity="1.0"
   bordercolor="#666666"
   pagecolor="#ffffff"
   id="base"
   inkscape:zoom="2.3315745"
   inkscape:cx="154.831"
   inkscape:cy="59.384096"
   inkscape:window-x="-4"
   inkscape:window-y="-4"
   inkscape:current-layer="Layer_1" />
<g
   id="g3"
   transform="matrix(1.014775,0,0,1.014775,-3.933161,-3.738139e-3)">
	<defs
   id="defs5">
		<polyline
   id="XMLID_1_"
   points="0,0.253 324.255,0.253 324.255,94.675 0,94.675   " />
	</defs>
	<clipPath
   id="XMLID_3_">
		<use
   xlink:href="#XMLID_1_"
   id="use9"
   x="0"
   y="0"
   width="325.95999"
   height="94.675003" />
	</clipPath>
	<polyline
   clip-path="url(#XMLID_3_)"
   points="325.96,93.276 325.96,0 4.948,0 4.948,93.276  "
   id="polyline11"
   style="fill:#ed1c24" />
	<path
   clip-path="url(#XMLID_3_)"
   d="M 106.403,39.712 C 106.339,37.887 106.507,35.461 107.67,34.262 C 108.147,33.766 108.74,33.527 109.484,33.527 C 110.561,33.527 111.38,33.823 111.986,34.428 C 112.848,35.291 113.266,36.791 113.266,39.019 L 113.266,57.549 C 113.266,60.228 112.853,62.964 109.795,62.964 C 108.817,62.964 108.042,62.688 107.492,62.138 C 106.768,61.413 106.403,60.211 106.403,58.561 C 106.403,58.561 106.403,39.72 106.403,39.712 z M 114.123,24.142 L 114.123,28.915 C 112.043,25.081 108.792,23.056 104.441,22.897 C 100.621,22.897 97.723,24.589 95.816,27.926 C 94.335,30.523 93.519,34.133 93.519,38.086 L 93.519,59.65 C 93.519,64.23 94.932,68.273 97.397,70.739 C 99.294,72.635 101.737,73.594 104.666,73.594 C 107.737,73.594 110.654,72.08 113.345,69.102 L 113.345,77.377 C 113.276,79.949 112.411,80.461 109.851,80.696 C 108.346,80.79 107.392,80.604 106.855,80.101 C 106.22,79.505 106.095,78.41 106.095,76.831 L 106.095,76.57 L 93.2,76.57 L 93.209,76.839 C 93.548,87.86 101.158,89.376 109.328,89.376 C 115.266,89.376 119.731,87.924 122.594,85.064 C 124.954,82.7 126.15,79.412 126.15,75.276 L 126.15,24.142 L 114.123,24.142 z "
   id="path13"
   style="fill:white" />
	<path
   clip-path="url(#XMLID_3_)"
   d="M 150.812,58.478 C 150.815,60.503 150.821,63.271 149.464,64.633 C 148.913,65.184 148.193,65.452 147.26,65.452 C 146.566,65.472 145.989,65.245 145.496,64.764 C 143.948,63.252 143.713,59.695 143.713,57.706 L 143.713,40.962 C 143.713,38.831 143.875,35.838 145.26,34.452 C 145.83,33.883 146.561,33.605 147.495,33.605 C 148.316,33.605 148.961,33.85 149.464,34.356 C 150.812,35.703 150.812,38.543 150.812,40.42 L 150.812,58.172 L 150.812,58.478 z M 152.861,22.897 C 148.63,22.897 145.486,24.402 143.713,27.263 L 143.713,9.369 L 130.828,9.369 L 130.828,74.683 L 142.86,74.683 L 142.86,70.189 C 144.893,73.731 148.489,75.921 152.619,76.085 C 159.975,75.831 163.695,70.303 163.695,59.65 L 163.695,38.087 C 163.695,34.915 163.174,29.071 159.666,25.565 C 157.896,23.794 155.607,22.897 152.861,22.897 z "
   id="path15"
   style="fill:white" />
	<path
   clip-path="url(#XMLID_3_)"
   d="M 203.326,66.463 C 202.026,66.463 200.94,66.066 200.189,65.315 C 199.41,64.532 198.998,63.41 198.998,62.061 L 198.998,58.964 C 198.998,55.906 200.476,54.483 201.766,53.58 C 202.698,52.879 203.849,52.353 205.191,51.744 C 205.954,51.396 206.74,51.034 207.574,50.605 L 207.574,56.226 L 207.574,60.113 C 207.492,63.008 206.688,66.463 203.326,66.463 z M 203.555,22.897 C 197.384,22.897 192.796,24.43 189.922,27.455 C 187.478,30.025 186.352,33.628 186.58,38.176 L 186.594,38.425 L 199.449,38.425 L 199.492,37.737 C 199.709,34.208 199.865,31.663 203.946,31.663 C 204.895,31.663 205.729,31.994 206.36,32.624 C 207.131,33.395 207.573,34.594 207.573,35.911 L 207.573,38.249 C 207.573,41.88 204.181,42.872 199.89,44.122 C 198.954,44.394 197.989,44.677 197.02,44.997 C 191.59,46.784 186.036,49.965 186.036,60.021 L 186.036,64.161 C 186.036,67.749 187.168,70.78 189.315,72.926 C 191.379,74.989 194.262,76.085 197.649,76.085 C 202.416,76.085 205.061,74.37 208.037,71.202 L 208.034,74.683 L 220.442,74.683 L 220.458,36.454 C 220.458,31.903 219.466,28.791 217.337,26.66 C 214.769,24.094 210.391,22.897 203.555,22.897 z "
   id="path17"
   style="fill:white" />
	<path
   clip-path="url(#XMLID_3_)"
   d="M 72.64,66.463 C 71.342,66.463 70.256,66.066 69.505,65.313 C 68.724,64.532 68.314,63.41 68.314,62.061 L 68.314,58.964 C 68.314,55.906 69.79,54.483 71.079,53.58 C 72.01,52.879 73.166,52.353 74.505,51.744 C 75.268,51.396 76.054,51.034 76.886,50.605 L 76.886,56.226 L 76.886,60.113 C 76.808,63.008 76.006,66.463 72.64,66.463 z M 72.873,22.897 C 66.701,22.897 62.114,24.43 59.237,27.455 C 56.794,30.025 55.671,33.628 55.897,38.176 L 55.908,38.425 L 68.765,38.425 L 68.808,37.737 C 69.027,34.208 69.183,31.663 73.264,31.663 C 74.212,31.663 75.048,31.994 75.675,32.624 C 76.446,33.395 76.887,34.594 76.887,35.911 L 76.887,38.249 C 76.887,41.88 73.498,42.872 69.204,44.122 C 68.271,44.394 67.305,44.677 66.339,44.997 C 60.905,46.784 55.354,49.965 55.354,60.021 L 55.354,64.161 C 55.354,67.749 56.485,70.78 58.629,72.926 C 60.695,74.989 63.58,76.085 66.966,76.085 C 71.734,76.085 74.379,74.37 77.354,71.199 L 77.354,74.683 L 89.756,74.683 L 89.774,36.454 C 89.774,31.903 88.783,28.791 86.651,26.66 C 84.084,24.094 79.704,22.897 72.873,22.897 z "
   id="path19"
   style="fill:white" />
	<path
   clip-path="url(#XMLID_3_)"
   d="M 237.549,40.658 C 237.546,38.696 237.54,35.737 238.933,34.344 C 239.478,33.793 240.188,33.528 241.099,33.528 C 241.753,33.512 242.29,33.719 242.746,34.161 C 243.852,35.242 244.415,37.687 244.415,41.431 L 244.415,58.173 C 244.415,62.668 243.82,65.453 240.867,65.453 C 240.035,65.453 239.388,65.207 238.879,64.7 C 237.549,63.372 237.549,60.571 237.549,58.717 L 237.549,40.962 L 237.549,40.658 L 237.549,40.658 z M 244.415,9.369 L 244.415,27.765 C 242.079,24.537 239.085,22.897 235.502,22.897 C 225.446,22.897 224.667,34.523 224.667,38.086 L 224.667,59.65 C 224.667,70.302 228.388,75.831 235.727,76.085 C 239.504,76.085 243.027,73.852 245.271,70.08 L 245.271,74.684 L 257.299,74.684 L 257.299,9.369 L 244.415,9.369 z "
   id="path21"
   style="fill:white" />
	<path
   clip-path="url(#XMLID_3_)"
   d="M 282.072,44.954 L 274.043,44.954 L 274.043,37.153 C 274.043,35.003 274.495,33.461 275.383,32.573 C 276.041,31.919 276.964,31.582 278.134,31.582 C 279.219,31.582 280.119,31.932 280.809,32.622 C 281.742,33.554 282.073,34.893 282.073,35.755 L 282.073,44.954 L 282.072,44.954 z M 278.058,22.897 C 272.832,22.939 268.773,24.065 265.992,26.248 C 262.786,28.762 261.158,32.745 261.158,38.086 L 261.158,62.294 C 261.158,66.223 262.351,69.397 264.707,71.733 C 268.398,75.392 274.009,76.119 278.063,76.084 C 283.88,75.999 288.225,74.455 290.981,71.501 C 293.601,68.688 294.784,64.595 294.492,59.324 L 294.479,59.077 L 281.7,59.077 L 281.684,59.322 C 281.654,59.766 281.639,60.221 281.619,60.664 C 281.533,62.808 281.453,64.83 280.309,65.876 C 279.695,66.439 278.808,66.681 277.602,66.62 C 274.39,66.434 274.042,63.532 274.042,62.294 L 274.042,53.639 L 294.957,53.639 L 294.957,35.755 C 294.957,32.242 293.855,29.374 291.691,27.224 C 288.012,23.581 282.248,22.859 278.058,22.897 z "
   id="path23"
   style="fill:white" />
	<path
   clip-path="url(#XMLID_3_)"
   d="M 312.836,24.142 L 312.836,14.94 L 299.947,14.94 L 299.947,24.142 L 296.095,24.142 L 296.095,33.605 L 299.947,33.605 L 299.947,65.014 C 299.947,68.292 300.834,70.84 302.581,72.587 C 304.385,74.391 307.066,75.304 310.553,75.304 C 313.355,75.304 316.039,74.967 318.52,74.604 L 318.744,74.57 L 318.744,65.379 C 318.739,65.379 317.725,65.368 317.725,65.368 C 316.915,65.359 316.375,65.349 315.276,65.533 C 314.401,65.529 313.84,65.361 313.467,64.986 C 313.039,64.561 312.836,63.836 312.836,62.76 L 312.836,33.605 L 318.743,33.605 L 318.743,24.142 L 312.836,24.142 L 312.836,24.142 z "
   id="path25"
   style="fill:white" />
	<path
   clip-path="url(#XMLID_3_)"
   d="M 29.758,20.355 C 36.142,20.513 38.181,20.958 38.254,27.477 C 38.254,27.474 38.254,53.003 38.254,53.003 C 38.394,57.652 38.394,60.583 36.705,62.207 C 35.471,63.395 33.26,63.851 29.758,63.642 L 29.758,20.355 z M 45.667,12.087 C 41.271,9.542 35.348,9.33 30.14,9.33 L 15.478,9.33 L 15.478,74.644 L 33.716,74.644 C 37.69,74.644 42.255,74.317 45.989,71.88 C 49.908,69.422 51.856,65.232 51.94,59.072 C 51.94,59.066 51.94,26.698 51.94,26.698 C 51.939,21.297 51.193,15.339 45.667,12.087 z "
   id="path27"
   style="fill:white" />
	<path
   clip-path="url(#XMLID_3_)"
   d="M 184.65,67.312 C 183.347,67.312 182.41,67.005 181.782,66.377 C 181.001,65.596 180.62,64.231 180.62,62.205 L 180.62,9.33 L 167.782,9.33 L 167.782,60.487 C 167.782,66.341 169.195,70.12 172.224,72.372 C 174.831,74.307 178.547,75.134 184.648,75.134 L 184.65,67.312 z "
   id="path29"
   style="fill:white" />
</g>
</svg>