<svg version="1.1" id="Layer_1" xmlns="http://www.w3.org/2000/svg" xmlns:xlink="http://www.w3.org/1999/xlink" x="0px" y="0px"
	 width="100%" viewBox="0 0 512 512" enable-background="new 0 0 512 512" xml:space="preserve">
<path fill="#000000" opacity="1.000000" stroke="none" 
	d="
M296.000000,513.000000 
	C197.357285,513.000000 99.214561,513.000000 1.035923,513.000000 
	C1.035923,342.398926 1.035923,171.797836 1.035923,1.098378 
	C171.559402,1.098378 342.118866,1.098378 512.839172,1.098378 
	C512.839172,171.666550 512.839172,342.333252 512.839172,513.000000 
	C440.797821,513.000000 368.648895,513.000000 296.000000,513.000000 
M200.482407,17.999933 
	C193.406158,19.090836 186.222855,19.725908 179.273682,21.357904 
	C158.223373,26.301529 138.268082,34.139103 119.561493,45.070175 
	C99.106171,57.023117 81.622765,72.391533 66.098381,90.255157 
	C51.533810,107.014336 40.591507,125.829071 31.965416,146.149277 
	C23.718813,165.575546 18.521643,185.926956 17.305882,206.829849 
	C16.246653,225.041397 16.179523,243.392914 19.785271,261.647125 
	C23.259401,279.235016 28.173401,296.181671 35.773830,312.381165 
	C43.810619,329.510712 53.621689,345.437134 66.122047,359.771240 
	C78.502792,373.968201 92.087997,386.692383 107.671181,397.283905 
	C127.393570,410.688721 148.763977,420.426331 171.851791,426.427094 
	C188.531113,430.762238 205.380280,433.594513 223.199646,432.907532 
	C217.051270,412.700775 210.913086,392.858124 205.033188,372.939178 
	C203.776291,368.681274 202.770996,364.988556 197.160965,365.538635 
	C195.608231,365.690887 193.948380,365.120239 192.382172,364.710907 
	C160.551392,356.392242 133.601456,340.146484 113.004974,314.344543 
	C95.662491,292.618988 84.865921,267.688202 82.268341,239.984467 
	C80.829025,224.633774 81.359619,209.025162 84.951225,193.719818 
	C90.587959,169.699295 101.547935,148.373856 117.730568,129.950974 
	C131.444016,114.339127 148.118668,102.530777 167.173096,93.870979 
	C193.065903,82.103294 220.121689,79.363625 247.798920,83.249405 
	C263.955963,85.517792 279.288910,91.280930 293.741211,99.230980 
	C310.800018,108.614838 325.588257,120.779739 337.366150,136.096466 
	C353.518555,157.102081 364.540588,180.538757 367.083252,207.388351 
	C367.293518,209.608887 367.951996,211.611450 370.960999,212.602539 
	C382.908783,216.537766 394.697632,220.955231 406.548096,225.186356 
	C415.171143,228.265167 423.798523,231.331955 431.973389,234.243622 
	C431.973389,221.659866 433.069641,209.466309 431.710419,197.552902 
	C429.785278,180.679764 425.462555,164.168655 418.989502,148.340103 
	C409.300323,124.647125 396.452240,102.875008 378.679047,84.349686 
	C370.687897,76.020348 362.078827,68.204987 353.187927,60.834587 
	C336.177734,46.733379 316.824463,36.581821 296.129303,28.996695 
	C280.072876,23.111748 263.623016,18.594902 246.442673,18.073408 
	C231.441483,17.618059 216.415131,17.991728 200.482407,17.999933 
M327.005554,473.592102 
	C331.336823,459.231476 335.707458,444.882568 339.989899,430.507416 
	C346.022278,410.258057 352.013245,389.996277 357.949554,369.718597 
	C358.588013,367.537720 359.277740,366.386108 361.936432,365.819733 
	C372.050537,363.665253 382.047577,360.960846 392.087463,358.458313 
	C418.106964,351.972626 444.121094,345.465027 470.148193,339.009949 
	C478.222107,337.007538 486.115112,334.979706 492.147156,328.445465 
	C503.620087,316.017273 501.239929,291.855621 483.381042,285.159943 
	C474.917633,281.986786 466.363190,279.056305 457.848328,276.020569 
	C432.616486,267.024872 407.398010,257.991241 382.148010,249.046814 
	C345.787048,236.166443 309.404785,223.346146 273.027679,210.511520 
	C259.628876,205.784119 245.996826,201.630539 232.866211,196.250977 
	C213.515060,188.322891 192.197281,202.187424 193.171082,222.272247 
	C193.503235,229.123154 195.313568,236.030487 197.313065,242.650909 
	C207.386154,276.003174 217.796432,309.253448 227.988785,342.569946 
	C238.048965,375.454437 247.970764,408.381226 257.992676,441.277435 
	C262.270416,455.318817 267.068359,469.217926 270.841461,483.391571 
	C273.637543,493.895081 279.748047,500.751068 289.980896,503.303375 
	C299.502594,505.678345 308.278717,503.540314 315.887207,496.731567 
	C322.649506,490.680054 324.580078,482.495331 327.005554,473.592102 
M177.474350,327.100067 
	C182.093369,328.844849 186.712372,330.589630 192.131439,332.636627 
	C191.794022,330.614960 191.748795,329.828766 191.528030,329.095428 
	C182.656784,299.629089 173.871185,270.136383 164.844986,240.717514 
	C159.745178,224.095810 161.429062,208.448532 169.798355,193.202591 
	C175.993881,181.916519 185.176422,173.881744 196.415405,168.483276 
	C206.908875,163.442902 218.335922,160.825378 229.963776,164.013824 
	C241.627853,167.212189 253.118393,171.095856 264.558960,175.044327 
	C280.348419,180.493729 296.001465,186.337082 311.749847,191.907471 
	C318.912140,194.440842 326.162811,196.724289 333.748322,199.245728 
	C333.808960,197.896225 334.006195,197.216385 333.841614,196.639816 
	C324.463318,163.788513 305.049683,138.956436 274.260223,123.790535 
	C251.690826,112.673584 227.744858,110.119949 203.061386,114.912109 
	C168.186569,121.682884 142.502701,141.267807 125.589684,172.097107 
	C113.644714,193.870575 110.583878,217.513336 113.981155,242.035797 
	C117.471535,267.230286 128.595566,288.794250 146.970642,305.995728 
	C155.732178,314.197693 166.749908,319.989563 177.474350,327.100067 
z"/>
<path fill="#7BD0E6" opacity="1.000000" stroke="none" 
	d="
M200.941147,17.999531 
	C216.415131,17.991728 231.441483,17.618059 246.442673,18.073408 
	C263.623016,18.594902 280.072876,23.111748 296.129303,28.996695 
	C316.824463,36.581821 336.177734,46.733379 353.187927,60.834587 
	C362.078827,68.204987 370.687897,76.020348 378.679047,84.349686 
	C396.452240,102.875008 409.300323,124.647125 418.989502,148.340103 
	C425.462555,164.168655 429.785278,180.679764 431.710419,197.552902 
	C433.069641,209.466309 431.973389,221.659866 431.973389,234.243622 
	C423.798523,231.331955 415.171143,228.265167 406.548096,225.186356 
	C394.697632,220.955231 382.908783,216.537766 370.960999,212.602539 
	C367.951996,211.611450 367.293518,209.608887 367.083252,207.388351 
	C364.540588,180.538757 353.518555,157.102081 337.366150,136.096466 
	C325.588257,120.779739 310.800018,108.614838 293.741211,99.230980 
	C279.288910,91.280930 263.955963,85.517792 247.798920,83.249405 
	C220.121689,79.363625 193.065903,82.103294 167.173096,93.870979 
	C148.118668,102.530777 131.444016,114.339127 117.730568,129.950974 
	C101.547935,148.373856 90.587959,169.699295 84.951225,193.719818 
	C81.359619,209.025162 80.829025,224.633774 82.268341,239.984467 
	C84.865921,267.688202 95.662491,292.618988 113.004974,314.344543 
	C133.601456,340.146484 160.551392,356.392242 192.382172,364.710907 
	C193.948380,365.120239 195.608231,365.690887 197.160965,365.538635 
	C202.770996,364.988556 203.776291,368.681274 205.033188,372.939178 
	C210.913086,392.858124 217.051270,412.700775 223.199646,432.907532 
	C205.380280,433.594513 188.531113,430.762238 171.851791,426.427094 
	C148.763977,420.426331 127.393570,410.688721 107.671181,397.283905 
	C92.087997,386.692383 78.502792,373.968201 66.122047,359.771240 
	C53.621689,345.437134 43.810619,329.510712 35.773830,312.381165 
	C28.173401,296.181671 23.259401,279.235016 19.785271,261.647125 
	C16.179523,243.392914 16.246653,225.041397 17.305882,206.829849 
	C18.521643,185.926956 23.718813,165.575546 31.965416,146.149277 
	C40.591507,125.829071 51.533810,107.014336 66.098381,90.255157 
	C81.622765,72.391533 99.106171,57.023117 119.561493,45.070175 
	C138.268082,34.139103 158.223373,26.301529 179.273682,21.357904 
	C186.222855,19.725908 193.406158,19.090836 200.941147,17.999531 
z"/>
<path fill="#7BD0E6" opacity="1.000000" stroke="none" 
	d="
M327.000305,474.008545 
	C324.580078,482.495331 322.649506,490.680054 315.887207,496.731567 
	C308.278717,503.540314 299.502594,505.678345 289.980896,503.303375 
	C279.748047,500.751068 273.637543,493.895081 270.841461,483.391571 
	C267.068359,469.217926 262.270416,455.318817 257.992676,441.277435 
	C247.970764,408.381226 238.048965,375.454437 227.988785,342.569946 
	C217.796432,309.253448 207.386154,276.003174 197.313065,242.650909 
	C195.313568,236.030487 193.503235,229.123154 193.171082,222.272247 
	C192.197281,202.187424 213.515060,188.322891 232.866211,196.250977 
	C245.996826,201.630539 259.628876,205.784119 273.027679,210.511520 
	C309.404785,223.346146 345.787048,236.166443 382.148010,249.046814 
	C407.398010,257.991241 432.616486,267.024872 457.848328,276.020569 
	C466.363190,279.056305 474.917633,281.986786 483.381042,285.159943 
	C501.239929,291.855621 503.620087,316.017273 492.147156,328.445465 
	C486.115112,334.979706 478.222107,337.007538 470.148193,339.009949 
	C444.121094,345.465027 418.106964,351.972626 392.087463,358.458313 
	C382.047577,360.960846 372.050537,363.665253 361.936432,365.819733 
	C359.277740,366.386108 358.588013,367.537720 357.949554,369.718597 
	C352.013245,389.996277 346.022278,410.258057 339.989899,430.507416 
	C335.707458,444.882568 331.336823,459.231476 327.000305,474.008545 
z"/>
<path fill="#017EA7" opacity="1.000000" stroke="none" 
	d="
M177.110016,326.986572 
	C166.749908,319.989563 155.732178,314.197693 146.970642,305.995728 
	C128.595566,288.794250 117.471535,267.230286 113.981155,242.035797 
	C110.583878,217.513336 113.644714,193.870575 125.589684,172.097107 
	C142.502701,141.267807 168.186569,121.682884 203.061386,114.912109 
	C227.744858,110.119949 251.690826,112.673584 274.260223,123.790535 
	C305.049683,138.956436 324.463318,163.788513 333.841614,196.639816 
	C334.006195,197.216385 333.808960,197.896225 333.748322,199.245728 
	C326.162811,196.724289 318.912140,194.440842 311.749847,191.907471 
	C296.001465,186.337082 280.348419,180.493729 264.558960,175.044327 
	C253.118393,171.095856 241.627853,167.212189 229.963776,164.013824 
	C218.335922,160.825378 206.908875,163.442902 196.415405,168.483276 
	C185.176422,173.881744 175.993881,181.916519 169.798355,193.202591 
	C161.429062,208.448532 159.745178,224.095810 164.844986,240.717514 
	C173.871185,270.136383 182.656784,299.629089 191.528030,329.095428 
	C191.748795,329.828766 191.794022,330.614960 192.131439,332.636627 
	C186.712372,330.589630 182.093369,328.844849 177.110016,326.986572 
z"/>
</svg>