<?xml version="1.0" standalone="no"?>
<!DOCTYPE svg PUBLIC "-//W3C//DTD SVG 20010904//EN"
 "http://www.w3.org/TR/2001/REC-SVG-20010904/DTD/svg10.dtd">
<svg version="1.0" xmlns="http://www.w3.org/2000/svg"
 width="800.000000pt" height="800.000000pt" viewBox="0 0 800.000000 800.000000"
 preserveAspectRatio="xMidYMid meet">

<g transform="translate(0.000000,800.000000) scale(0.100000,-0.100000)"
fill="#000000" stroke="none">
<path d="M4079 7996 c-4 -4 -76 -11 -160 -17 -294 -18 -715 -114 -968 -220
-195 -81 -315 -167 -444 -317 -108 -125 -130 -143 -239 -198 -121 -61 -156
-99 -230 -252 -56 -114 -70 -135 -140 -202 -90 -88 -107 -122 -169 -349 -22
-80 -76 -263 -119 -406 -262 -868 -316 -1378 -163 -1537 l26 -27 -41 -80 c-57
-108 -75 -191 -69 -311 5 -116 26 -181 135 -420 108 -237 133 -317 172 -550
41 -242 102 -309 338 -370 40 -10 42 -12 42 -50 0 -196 155 -519 419 -870 122
-163 149 -246 109 -340 -28 -64 -105 -156 -204 -245 -352 -313 -742 -524
-1462 -791 -278 -103 -282 -108 -282 -309 l0 -125 1020 0 1020 0 0 48 c0 26
-7 141 -15 257 -23 328 -29 597 -16 718 10 104 30 167 52 167 26 0 166 -152
349 -380 354 -439 523 -606 750 -741 38 -22 70 -48 70 -55 0 -11 20 -14 92
-14 50 0 89 2 87 4 -30 28 -269 211 -291 222 -15 8 -28 20 -28 26 0 20 130 2
358 -52 123 -28 254 -55 290 -58 l67 -7 3 -67 3 -68 147 0 c123 0 151 3 174
18 14 9 93 73 175 142 81 69 216 177 298 240 269 204 348 271 483 408 73 74
134 133 136 131 2 -2 15 -107 30 -234 24 -211 35 -343 52 -607 l6 -98 719 0
719 0 0 355 0 355 -22 9 c-13 5 -133 62 -268 128 -621 302 -889 506 -1131 861
l-58 84 35 70 c57 113 108 254 195 531 44 143 94 294 110 336 39 99 131 274
201 382 124 191 132 219 133 469 l0 195 41 115 c23 63 54 148 68 189 40 109
44 191 16 282 -13 42 -24 101 -24 136 -1 62 0 64 46 109 31 30 50 57 54 80 4
20 -5 121 -19 232 -15 108 -31 242 -37 297 -70 637 -128 958 -226 1255 -119
358 -258 583 -524 851 -380 382 -772 571 -1335 645 -126 16 -545 31 -556 20z
m339 -536 c60 -27 86 -59 153 -190 76 -147 89 -165 121 -157 43 11 75 45 113
120 41 83 51 97 85 120 35 25 40 22 40 -25 0 -116 44 -173 165 -217 184 -66
238 -110 249 -204 9 -67 40 -103 80 -93 15 3 26 3 26 -1 0 -4 -27 -62 -60
-129 -62 -125 -127 -204 -169 -204 -25 0 -77 60 -86 99 -9 41 -17 44 -61 26
-78 -32 -122 -13 -158 70 -13 29 -29 56 -35 59 -6 4 -35 -6 -64 -22 -55 -31
-71 -31 -134 1 -39 20 -53 21 -53 4 0 -18 -36 -50 -80 -72 -29 -15 -50 -17
-145 -11 -60 4 -137 10 -170 14 l-60 7 -3 132 -3 133 -26 6 c-17 5 -47 0 -78
-11 -27 -10 -65 -21 -83 -25 l-33 -8 -43 87 c-24 48 -46 99 -47 115 -4 26 0
30 39 41 87 26 119 68 148 192 22 97 24 103 40 103 22 0 95 -71 111 -107 7
-19 13 -69 13 -118 0 -95 5 -100 75 -71 64 27 78 75 66 236 -4 58 -6 108 -4
113 6 11 25 8 71 -13z m-737 -490 c20 -6 64 -35 98 -65 70 -62 109 -85 146
-85 25 0 25 -1 25 -81 l0 -81 -32 6 c-133 25 -210 16 -221 -26 -8 -29 -30 -17
-39 23 -14 57 -30 90 -42 86 -6 -2 -27 -27 -46 -55 -19 -28 -48 -58 -65 -66
-28 -15 -31 -14 -47 5 -34 40 -41 95 -23 174 22 101 29 108 102 106 48 -1 63
3 78 19 9 10 15 26 12 35 -7 18 4 19 54 5z m-1557 -242 c-13 -42 -7 -99 13
-126 22 -31 94 -69 211 -113 45 -17 96 -42 114 -57 31 -26 64 -89 53 -100 -3
-3 -31 0 -63 7 -31 7 -81 15 -110 18 l-53 6 8 -29 c32 -120 -32 -331 -150
-490 -45 -61 -125 -124 -159 -124 -22 0 -23 -12 -3 -50 27 -52 56 -199 56
-284 1 -82 -4 -101 -62 -253 -23 -61 -23 -63 -6 -90 76 -118 74 -272 -4 -367
-35 -41 -97 -75 -139 -76 l-26 0 15 124 c12 102 12 132 2 167 -15 48 -49 86
-85 94 -14 3 -37 7 -50 10 -22 4 -23 7 -15 58 11 70 34 133 64 179 14 21 25
46 25 57 0 27 -52 79 -86 86 -16 3 -39 8 -51 11 -28 5 -29 19 -3 91 11 32 20
68 20 80 0 31 33 43 120 43 84 0 100 6 100 36 0 28 -33 53 -83 61 -30 4 -37
10 -33 22 28 84 30 102 17 149 l-13 47 43 35 c86 72 129 118 129 139 0 32 -25
36 -108 19 l-75 -16 6 82 c9 119 25 184 56 217 22 24 42 32 125 49 55 10 103
23 108 28 14 14 0 35 -58 81 -30 24 -54 50 -54 58 0 8 9 35 19 61 11 26 22 55
25 65 4 14 18 17 86 17 79 0 81 -1 74 -22z m2582 -223 c447 -32 483 -44 471
-159 -7 -66 -25 -104 -88 -179 -27 -32 -49 -68 -49 -79 0 -11 14 -33 31 -49
l31 -29 -4 -192 c-2 -106 -8 -200 -12 -209 -22 -48 -145 -84 -438 -129 -343
-52 -443 -74 -468 -106 -16 -19 5 -18 263 2 281 22 591 15 702 -15 104 -28
180 -74 216 -130 16 -24 42 -87 58 -140 28 -88 58 -141 81 -141 20 0 73 -56
96 -102 l25 -50 -23 7 c-13 4 -39 16 -60 26 -65 33 -167 68 -243 84 -153 31
-282 14 -485 -65 -142 -55 -182 -60 -254 -27 -55 25 -56 25 -66 6 -6 -10 -15
-45 -21 -76 -18 -105 -23 -110 -92 -120 l-62 -8 -3 -63 c-6 -131 65 -810 99
-945 32 -128 69 -249 90 -289 24 -48 47 -49 96 -4 48 43 110 76 143 76 22 0
31 -11 63 -75 20 -42 37 -86 37 -99 0 -101 -275 -196 -654 -226 -323 -25 -693
5 -738 60 -24 30 -23 47 7 107 24 47 105 133 150 159 17 10 18 13 6 28 -46 56
-164 64 -258 19 -59 -29 -105 -71 -323 -298 -142 -149 -205 -186 -329 -193
-137 -8 -250 38 -351 144 -133 138 -174 329 -104 484 14 32 37 69 50 81 33 31
30 50 -16 134 -22 40 -40 82 -40 93 0 20 69 89 142 140 40 29 47 52 23 72 -12
10 -14 24 -9 56 6 41 4 44 -21 54 -14 5 -40 10 -57 10 -37 0 -37 -2 41 125 33
54 61 104 61 111 0 6 24 14 55 18 143 17 259 100 286 205 l13 53 56 -6 c30 -3
123 -10 205 -16 236 -17 339 -39 396 -87 63 -53 60 -57 -64 -98 -61 -20 -185
-66 -275 -101 -196 -78 -274 -97 -497 -125 -93 -12 -174 -25 -178 -29 -13 -12
10 -47 43 -67 39 -23 38 -40 -2 -51 l-33 -9 55 -16 c118 -35 263 -49 338 -33
39 9 42 33 5 42 -16 3 -39 9 -53 13 l-25 8 33 31 c64 60 75 61 592 52 175 -4
223 -2 260 11 l45 15 -1 66 c0 48 -6 75 -22 102 -29 49 -28 66 8 103 29 30 44
35 185 67 80 19 105 36 85 60 -9 12 -32 16 -90 16 -88 0 -90 2 -90 78 -1 82
-86 290 -125 306 -27 10 -68 -13 -131 -75 l-62 -59 -104 0 c-62 0 -122 -6
-152 -15 -63 -19 -128 -19 -213 1 -38 9 -84 13 -105 10 -92 -15 -224 -84 -396
-208 -46 -33 -85 -58 -87 -56 -7 7 55 181 95 265 56 119 142 247 224 332 172
178 332 251 696 316 174 32 220 43 220 55 0 16 -114 35 -210 34 -119 -1 -180
-18 -340 -94 -97 -45 -377 -150 -403 -150 -2 0 13 33 33 73 21 39 47 111 59
158 26 109 57 346 72 559 14 198 12 195 157 240 124 39 203 53 541 100 274 38
278 38 627 39 222 1 428 -5 560 -14z m804 -1834 c30 -12 66 -31 80 -42 l25
-21 -67 6 c-73 6 -128 -7 -128 -30 0 -8 14 -42 31 -75 17 -34 28 -63 26 -65
-2 -3 -105 -9 -228 -14 -123 -6 -269 -14 -324 -20 -55 -5 -117 -10 -138 -10
-38 0 -38 0 -22 23 30 43 161 139 251 183 185 91 365 114 494 65z m-2011 -361
c51 -26 57 -45 24 -76 -32 -30 -69 -31 -100 -2 -26 24 -28 36 -11 73 14 30 36
32 87 5z m-1735 -135 c35 -72 46 -163 45 -365 -1 -107 -4 -229 -8 -270 l-6
-75 -42 55 c-157 208 -208 465 -120 597 28 42 87 93 107 93 4 0 15 -16 24 -35z
m3456 0 c112 -17 198 -19 236 -5 30 12 47 4 24 -11 -27 -17 -168 -58 -272 -80
-236 -48 -453 -11 -357 60 17 12 47 29 67 36 49 18 185 18 302 0z m-472 -249
c160 -80 281 -127 419 -162 75 -19 140 -34 145 -34 5 0 8 12 6 27 -4 37 -63
64 -213 98 -66 15 -145 39 -175 54 l-55 26 75 6 c41 4 151 7 243 8 178 1 240
-7 405 -55 266 -77 384 -209 342 -383 l-12 -50 -69 -22 c-38 -12 -72 -26 -75
-31 -3 -4 4 -21 14 -36 43 -60 57 -128 57 -282 0 -131 -2 -149 -23 -192 -13
-25 -34 -54 -48 -63 -41 -27 -137 -39 -202 -26 -140 28 -227 102 -407 346 -65
88 -145 193 -177 233 -76 96 -195 276 -251 382 -52 96 -99 200 -92 200 3 0 45
-20 93 -44z m-2883 -643 c-7 -47 -52 -181 -66 -197 -4 -5 -17 7 -28 25 -23 37
-27 101 -11 144 14 37 59 75 88 75 23 0 24 -2 17 -47z m1492 -257 c32 -30 76
-63 98 -75 22 -11 120 -38 217 -60 119 -27 206 -52 265 -79 48 -21 111 -47
139 -57 l52 -18 179 36 c99 20 224 51 277 68 95 31 97 31 141 15 59 -23 120
-91 140 -158 13 -44 39 -238 32 -244 -1 -1 -38 -10 -82 -19 -131 -28 -427 -31
-777 -6 -367 26 -604 27 -750 4 -144 -23 -156 -13 -122 103 8 30 14 66 12 81
-3 25 -6 28 -38 25 -69 -5 -135 -48 -230 -150 -49 -53 -90 -103 -90 -110 0
-57 211 -332 255 -332 10 0 38 21 61 46 l43 46 83 -68 c180 -147 377 -256 563
-313 148 -45 215 -55 365 -55 136 0 202 10 320 45 77 24 95 21 220 -36 53 -24
125 -49 160 -55 36 -7 74 -14 86 -16 18 -3 22 -15 32 -86 18 -127 15 -198 -13
-285 -60 -192 -191 -326 -440 -451 -185 -94 -425 -113 -745 -61 -272 44 -518
154 -642 286 -50 55 -63 78 -143 252 -29 64 -105 224 -168 357 -128 266 -185
402 -223 533 -30 104 -41 224 -24 266 12 29 13 27 54 -90 116 -328 340 -761
454 -877 20 -21 39 -38 43 -38 4 0 13 16 19 36 31 93 -21 220 -185 449 -163
228 -212 347 -203 489 8 116 42 170 241 372 93 94 186 196 209 228 22 31 43
56 48 56 5 0 35 -24 67 -54z m-1524 -37 c12 -6 46 -36 74 -67 38 -40 49 -58
40 -64 -39 -25 -98 11 -128 76 -29 64 -26 75 14 55z m3891 -325 c18 -46 -2
-198 -41 -319 -48 -151 -146 -400 -190 -490 -25 -49 -94 -164 -153 -255 -106
-164 -196 -311 -260 -425 -40 -71 -39 -70 -45 -63 -4 3 18 79 48 169 57 171
130 344 227 540 32 63 106 232 165 375 125 304 210 484 229 484 8 0 17 -7 20
-16z m-1578 -446 c177 -25 265 -32 390 -32 l162 -1 -14 -27 c-20 -39 -43 -48
-121 -48 -39 0 -95 -9 -133 -20 -175 -54 -324 -49 -624 19 -94 22 -198 44
-230 50 -95 17 -92 23 25 51 46 12 98 25 114 29 60 18 205 10 431 -21z m-378
-208 c116 -36 267 -45 529 -31 129 7 237 10 240 8 10 -11 -38 -85 -80 -124
-56 -52 -109 -79 -189 -98 -75 -18 -207 -19 -280 -4 -149 32 -264 127 -292
242 -8 32 -8 32 72 7z"/>
<path d="M3295 4114 c-49 -12 -72 -27 -94 -63 -37 -60 -79 -78 -208 -90 -124
-11 -195 -33 -174 -54 18 -18 256 -14 366 7 155 29 258 67 308 114 38 36 35
59 -10 72 -43 13 -158 21 -188 14z"/>
<path d="M4495 1629 c-49 -4 -169 -7 -266 -8 -102 -1 -212 -7 -260 -15 -46 -8
-110 -18 -141 -21 -32 -4 -58 -11 -58 -16 0 -5 5 -9 10 -9 16 0 12 -45 -10
-100 -11 -28 -20 -55 -20 -59 0 -15 71 -38 159 -51 210 -32 446 17 576 120 60
47 142 176 108 168 -5 0 -48 -4 -98 -9z"/>
</g>
</svg>
