<?xml version="1.0" standalone="no"?>
<!DOCTYPE svg PUBLIC "-//W3C//DTD SVG 20010904//EN"
 "http://www.w3.org/TR/2001/REC-SVG-20010904/DTD/svg10.dtd">
<svg version="1.0" xmlns="http://www.w3.org/2000/svg"
 width="300.000000pt" height="225.000000pt" viewBox="0 0 300.000000 225.000000"
 preserveAspectRatio="xMidYMid meet">

<g transform="translate(0.000000,225.000000) scale(0.100000,-0.100000)"
fill="#000000" stroke="none">
<path d="M760 2194 c-335 -103 -550 -212 -668 -337 -62 -66 -84 -114 -84 -178
0 -154 203 -289 567 -378 l91 -22 49 -117 c26 -64 71 -170 98 -235 l49 -118
94 51 94 50 18 -38 c11 -20 97 -215 192 -432 96 -217 176 -398 180 -403 3 -4
-2 59 -12 140 -44 365 -120 997 -130 1091 -7 56 -15 102 -19 102 -3 0 -53 -34
-110 -75 -69 -50 -106 -70 -110 -63 -4 7 -33 82 -65 168 l-57 157 -166 12
c-196 13 -284 30 -368 72 -224 109 -94 303 348 519 79 38 139 70 134 70 -6 -1
-62 -17 -125 -36z"/>
<path d="M2165 2202 c347 -151 570 -339 541 -455 -16 -66 -109 -124 -243 -153
-38 -8 -142 -19 -233 -26 l-166 -11 -58 -161 c-32 -89 -61 -164 -65 -167 -3
-4 -53 27 -111 67 -91 65 -106 72 -112 57 -3 -10 -25 -175 -48 -368 -23 -192
-57 -478 -76 -634 -19 -157 -33 -291 -32 -298 2 -8 75 150 163 349 87 200 174
396 192 436 l33 73 94 -51 95 -51 18 43 c11 24 55 129 98 235 l80 192 90 21
c50 12 131 36 180 52 261 87 417 231 390 359 -39 180 -297 345 -757 484 -137
41 -155 43 -73 7z"/>
</g>
</svg>
